<?xml version="1.0" encoding="utf-8"?>
<!-- Generator: Adobe Illustrator 16.0.0, SVG Export Plug-In . SVG Version: 6.00 Build 0)  -->
<!DOCTYPE svg PUBLIC "-//W3C//DTD SVG 1.1//EN" "http://www.w3.org/Graphics/SVG/1.1/DTD/svg11.dtd">
<svg version="1.1" id="Layer_1" xmlns="http://www.w3.org/2000/svg" xmlns:xlink="http://www.w3.org/1999/xlink" x="0px" y="0px"
	 width="100px" height="100px" viewBox="0 0 100 100" enable-background="new 0 0 100 100" xml:space="preserve">
<g>
	<path fill="#231F20" d="M64.178,84.809c0,0.488-0.451,0.807-0.822,1.047c-0.398,0.24-0.822,0.421-1.256,0.583
		c-0.865,0.318-1.76,0.547-2.656,0.748c-1.799,0.365-3.626,0.583-5.453,0.736c-3.657,0.278-7.337,0.225-10.994-0.213
		c-1.831-0.261-3.657-0.532-5.441-1.287c-0.437-0.217-0.897-0.425-1.291-0.925c-0.197-0.265-0.318-0.682-0.161-1.072
		c0.146-0.342,0.378-0.538,0.586-0.703c0.874-0.603,1.783-0.814,2.689-1.043c3.629-0.792,7.306-0.887,10.951-0.705
		c-1.823,0.113-3.641,0.231-5.44,0.472c-1.799,0.213-3.598,0.488-5.322,0.973c-0.842,0.248-1.728,0.539-2.35,0.996
		c-0.15,0.11-0.256,0.244-0.284,0.327c-0.015,0.043-0.019,0.126,0.06,0.22c0.173,0.221,0.563,0.44,0.945,0.603
		c1.59,0.649,3.409,0.934,5.18,1.165c3.578,0.448,7.212,0.531,10.833,0.434c1.807-0.056,3.618-0.19,5.408-0.453
		c0.898-0.122,1.789-0.275,2.658-0.52c0.438-0.122,0.861-0.268,1.264-0.464C63.662,85.532,64.123,85.28,64.178,84.809z"/>
	<path fill="#231F20" d="M59.932,83.938c0,0.339-0.313,0.563-0.568,0.736c-0.275,0.165-0.57,0.295-0.869,0.405
		c-0.602,0.224-1.221,0.39-1.842,0.531c-1.248,0.261-2.512,0.417-3.783,0.523c-2.536,0.209-5.09,0.169-7.634-0.13
		c-1.267-0.185-2.535-0.374-3.783-0.901c-0.311-0.154-0.63-0.3-0.917-0.661c-0.067-0.099-0.126-0.216-0.154-0.358l-0.012-0.109
		l-0.003-0.028c-0.004,0.035,0.003-0.059,0.003-0.055v-0.004l0.004-0.032l0.008-0.059c0.008-0.031,0.02-0.079,0.035-0.117
		c0.114-0.292,0.276-0.402,0.425-0.528c0.622-0.429,1.252-0.57,1.882-0.729c2.523-0.54,5.078-0.594,7.605-0.448
		c-1.263,0.09-2.523,0.177-3.771,0.354c-1.244,0.149-2.492,0.346-3.681,0.685c-0.578,0.173-1.192,0.382-1.613,0.689
		c-0.205,0.192-0.209,0.205-0.142,0.314c0.11,0.142,0.374,0.291,0.634,0.401c1.094,0.44,2.354,0.638,3.579,0.799
		c2.476,0.311,4.995,0.37,7.503,0.314c1.251-0.034,2.507-0.121,3.746-0.303c0.619-0.078,1.24-0.181,1.844-0.347
		c0.303-0.082,0.598-0.18,0.877-0.314C59.572,84.435,59.887,84.266,59.932,83.938z"/>
	<path fill="#90278E" d="M37.178,43.849L37.178,43.849C37.178,43.864,37.178,43.856,37.178,43.849z"/>
	<path fill="#90278E" d="M75.885,23.067c0.332-0.087,0.658-0.181,0.984-0.276l0.072-0.098c-0.359,0.103-0.717,0.197-1.07,0.287
		c-2.775,0.697-5.604,1.146-8.438,1.492c-5.68,0.653-11.399,0.842-17.104,0.779c-5.708-0.075-11.412-0.437-17.053-1.197
		c-2.818-0.377-5.629-0.85-8.361-1.566c-1.362-0.358-2.712-0.78-3.968-1.338c-0.63-0.28-1.237-0.603-1.744-0.992
		c-0.512-0.382-0.902-0.874-0.882-1.275c-0.016-0.398,0.37-0.894,0.882-1.272c0.507-0.39,1.118-0.713,1.744-0.992
		c1.255-0.563,2.606-0.98,3.968-1.342c2.732-0.712,5.543-1.188,8.361-1.563c5.641-0.755,11.346-1.122,17.053-1.197
		c5.708-0.066,11.424,0.126,17.104,0.78c2.834,0.346,5.662,0.795,8.438,1.488c1.377,0.35,2.756,0.76,4.061,1.327
		c0.41,0.181,0.805,0.386,1.189,0.61l0.016-0.023c-0.381-0.229-0.779-0.441-1.186-0.623c-1.311-0.586-2.68-1.007-4.066-1.374
		c-2.766-0.725-5.594-1.2-8.432-1.579c-5.672-0.764-11.4-1.13-17.124-1.205c-5.732-0.063-11.471,0.123-17.179,0.787
		c-2.854,0.347-5.7,0.799-8.511,1.5c-1.401,0.358-2.799,0.771-4.161,1.362c-0.677,0.299-1.35,0.638-1.984,1.11
		c-0.315,0.24-0.622,0.512-0.886,0.866c-0.129,0.177-0.248,0.377-0.338,0.602c-0.083,0.212-0.142,0.536-0.138,0.737
		c0.004,0.519,0.217,0.987,0.477,1.338c0.264,0.354,0.575,0.626,0.886,0.866c0.634,0.472,1.307,0.811,1.988,1.11
		c1.358,0.591,2.756,1,4.157,1.358c2.811,0.705,5.657,1.158,8.511,1.508c5.708,0.653,11.447,0.846,17.179,0.783
		c5.728-0.075,11.452-0.445,17.124-1.205C70.291,24.264,73.119,23.788,75.885,23.067z"/>
	<path fill="#90278E" d="M50.33,31.803c-4.913-0.075-9.826-0.394-14.675-1.063c-2.425-0.331-4.838-0.755-7.185-1.37
		c-1.173-0.308-2.33-0.662-3.409-1.142c-0.535-0.24-1.05-0.512-1.484-0.838c-0.433-0.307-0.748-0.771-0.732-0.996
		c-0.012-0.37,0.299-0.725,0.732-1.063c0.434-0.327,0.949-0.603,1.484-0.839c0.445-0.197,0.91-0.366,1.378-0.523
		c-0.602-0.129-1.201-0.264-1.799-0.414c-0.071-0.015-0.142-0.035-0.212-0.055c-0.531,0.244-1.059,0.516-1.563,0.894
		c-0.276,0.208-0.547,0.449-0.78,0.764c-0.118,0.157-0.224,0.339-0.303,0.54c-0.075,0.173-0.126,0.523-0.122,0.626
		c0,0.543,0.193,0.909,0.425,1.24c0.232,0.315,0.504,0.551,0.78,0.764c0.551,0.409,1.138,0.708,1.724,0.969
		c1.177,0.512,2.386,0.874,3.594,1.185c2.425,0.606,4.881,0.98,7.341,1.271c4.925,0.555,9.869,0.708,14.806,0.646
		c4.932-0.078,9.866-0.397,14.747-1.071c2.252-0.303,4.486-0.701,6.691-1.244l0.043-0.063c-2.225,0.527-4.486,0.874-6.754,1.146
		C60.168,31.712,55.242,31.869,50.33,31.803z"/>
	<path fill="#90278E" d="M50.33,36.086c-4.204-0.075-8.404-0.362-12.554-0.941c-2.07-0.283-4.133-0.653-6.137-1.177
		c-0.996-0.264-1.984-0.571-2.901-0.976c-0.453-0.201-0.894-0.437-1.252-0.709c-0.366-0.271-0.61-0.61-0.591-0.814
		c-0.02-0.201,0.225-0.543,0.591-0.811c0.122-0.09,0.264-0.177,0.397-0.256c-0.477-0.13-0.952-0.264-1.429-0.414
		c-0.13,0.118-0.256,0.245-0.366,0.402c-0.103,0.142-0.197,0.299-0.268,0.484c-0.071,0.166-0.118,0.441-0.114,0.595
		c0,0.425,0.177,0.803,0.382,1.078c0.204,0.28,0.444,0.488,0.685,0.67c0.48,0.362,0.984,0.618,1.493,0.842
		c1.015,0.441,2.05,0.748,3.09,1.016c2.082,0.519,4.188,0.834,6.294,1.082c4.216,0.465,8.452,0.587,12.68,0.52
		c4.219-0.075,8.444-0.362,12.625-0.944c1.877-0.256,3.742-0.591,5.584-1.04l0.049-0.066c-1.867,0.433-3.76,0.72-5.656,0.944
		C58.746,36.03,54.529,36.149,50.33,36.086z"/>
	<path fill="#90278E" d="M50.33,40.188c-3.511-0.075-7.015-0.326-10.467-0.823c-1.728-0.24-3.448-0.551-5.114-0.988
		c-0.831-0.22-1.649-0.476-2.409-0.811c-0.374-0.169-0.736-0.362-1.023-0.582c-0.299-0.22-0.477-0.488-0.457-0.603
		c-0.016-0.114,0.157-0.382,0.457-0.598c0.256-0.197,0.567-0.362,0.89-0.516c-0.283-0.063-0.567-0.122-0.85-0.192
		c-0.26-0.067-0.52-0.138-0.78-0.208c-0.197,0.149-0.394,0.323-0.566,0.559c-0.091,0.122-0.173,0.263-0.236,0.425
		c-0.06,0.146-0.103,0.401-0.098,0.531c0,0.382,0.157,0.72,0.334,0.957c0.185,0.248,0.386,0.424,0.594,0.582
		c0.413,0.307,0.838,0.524,1.264,0.713c0.858,0.37,1.724,0.629,2.598,0.85c1.744,0.433,3.503,0.693,5.267,0.897
		c3.527,0.378,7.066,0.465,10.597,0.397c3.528-0.07,7.051-0.327,10.538-0.822c1.543-0.213,3.078-0.493,4.588-0.859l0.049-0.066
		c-1.535,0.346-3.094,0.578-4.656,0.76C57.353,40.168,53.834,40.254,50.33,40.188z"/>
	<path fill="#90278E" d="M50.33,43.561c-2.886-0.075-5.763-0.295-8.602-0.712c-1.417-0.201-2.826-0.46-4.188-0.823
		c-0.682-0.181-1.351-0.39-1.965-0.661c-0.307-0.138-0.594-0.295-0.823-0.468c-0.24-0.174-0.354-0.382-0.334-0.414
		c-0.016-0.032,0.094-0.236,0.334-0.41c0.182-0.142,0.41-0.268,0.65-0.382c-0.315-0.067-0.626-0.13-0.937-0.208
		c-0.212-0.051-0.421-0.118-0.629-0.177c-0.107,0.094-0.209,0.197-0.308,0.327c-0.079,0.11-0.149,0.232-0.205,0.374
		c-0.055,0.13-0.094,0.367-0.09,0.477c0,0.342,0.141,0.642,0.299,0.851c0.158,0.216,0.331,0.366,0.508,0.5
		c0.351,0.259,0.708,0.437,1.063,0.594c0.712,0.311,1.429,0.519,2.149,0.704c1.44,0.358,2.897,0.563,4.35,0.732
		c2.906,0.299,5.822,0.358,8.728,0.291c2.901-0.075,5.803-0.299,8.672-0.716c1.33-0.189,2.648-0.441,3.949-0.768l0.039-0.055
		c-1.318,0.311-2.666,0.503-4.008,0.657C56.104,43.573,53.211,43.628,50.33,43.561z"/>
	<rect x="49.602" y="49.187" fill="#231F20" width="1.452" height="34.885"/>
	<path fill="#90278E" d="M50.33,46.372c-2.401-0.071-4.798-0.271-7.156-0.63c-1.177-0.169-2.346-0.389-3.477-0.692
		c-0.563-0.149-1.122-0.323-1.622-0.547c-0.248-0.114-0.484-0.24-0.666-0.382c-0.141-0.086-0.217-0.225-0.232-0.248
		c0.003-0.043,0.003-0.04,0-0.023c0.003-0.012,0.015-0.031,0.035-0.059c0.036-0.055,0.11-0.126,0.197-0.193
		c0.146-0.114,0.331-0.216,0.528-0.311c-0.229-0.047-0.457-0.099-0.685-0.154c-0.275-0.071-0.551-0.149-0.827-0.236
		c-0.059,0.063-0.119,0.122-0.173,0.193c-0.071,0.098-0.134,0.208-0.185,0.338c-0.047,0.099-0.09,0.37-0.083,0.394
		c0.032,0.729,0.441,1.004,0.712,1.24c0.303,0.225,0.606,0.374,0.906,0.503c0.602,0.265,1.204,0.438,1.807,0.595
		c1.208,0.292,2.425,0.465,3.638,0.599c2.428,0.24,4.857,0.275,7.282,0.208c2.421-0.075,4.834-0.276,7.228-0.634
		c1.103-0.162,2.204-0.374,3.282-0.646l0.039-0.06c-1.098,0.26-2.219,0.414-3.346,0.54C55.141,46.407,52.73,46.439,50.33,46.372z"/>
	<path fill="#90278E" d="M50.33,48.896c-2.153-0.075-4.303-0.26-6.413-0.587c-1.055-0.153-2.103-0.358-3.11-0.626
		c-0.503-0.138-1-0.292-1.445-0.492c-0.221-0.098-0.433-0.212-0.586-0.33c-0.111-0.083-0.161-0.162-0.181-0.193
		c0.02-0.023,0.07-0.106,0.185-0.185c0.154-0.122,0.362-0.236,0.583-0.334l0.004-0.004c-0.488-0.122-0.977-0.276-1.465-0.465
		c-0.083,0.075-0.169,0.158-0.248,0.264c-0.067,0.09-0.126,0.196-0.177,0.315c-0.044,0.11-0.083,0.323-0.075,0.409
		c0,0.295,0.122,0.551,0.252,0.724c0.133,0.177,0.271,0.299,0.409,0.406c0.28,0.205,0.551,0.342,0.827,0.461
		c0.543,0.232,1.086,0.393,1.629,0.531c1.091,0.264,2.181,0.414,3.271,0.532c2.181,0.208,4.365,0.232,6.539,0.165
		c2.172-0.071,4.338-0.263,6.483-0.59c0.686-0.099,1.367-0.229,2.043-0.374l0.072-0.099c-0.709,0.126-1.422,0.232-2.135,0.311
		C54.641,48.942,52.479,48.962,50.33,48.896z"/>
</g>
</svg>
